<?xml version="1.0" encoding="UTF-8" ?>
<!DOCTYPE svg PUBLIC "-//W3C//DTD SVG 1.1//EN" "http://www.w3.org/Graphics/SVG/1.1/DTD/svg11.dtd">
<svg width="417pt" height="470pt" viewBox="0 0 417 470" version="1.1" xmlns="http://www.w3.org/2000/svg">
<path fill="#ffffff" d=" M 0.00 0.00 L 417.00 0.00 L 417.00 470.00 L 0.00 470.00 L 0.00 0.00 Z" />
<path fill="#e70808" d=" M 145.02 74.29 C 149.64 71.34 155.47 71.17 160.01 68.04 C 165.93 68.33 172.06 67.60 177.79 69.49 C 181.13 70.36 184.63 70.72 187.79 72.20 C 190.41 73.37 193.19 74.65 196.13 73.88 C 203.66 71.94 210.86 67.49 218.89 68.91 C 227.38 71.41 236.26 73.96 242.90 80.15 C 257.84 93.43 265.97 112.64 270.29 131.81 C 273.38 141.35 273.36 151.49 275.69 161.18 C 277.55 174.71 283.26 187.27 287.77 200.05 C 288.91 203.05 291.35 205.38 292.17 208.52 C 282.10 225.97 276.45 245.50 270.40 264.61 C 265.09 278.25 261.26 292.73 252.77 304.87 C 249.92 308.65 248.09 313.15 244.69 316.51 C 242.53 320.29 239.03 322.98 236.13 326.15 C 229.35 332.74 220.53 337.98 210.89 338.42 C 205.53 339.48 200.02 338.64 194.66 339.65 C 188.41 338.04 181.78 340.04 175.54 338.34 C 175.27 338.37 174.74 338.42 174.48 338.44 C 164.98 337.23 155.20 334.71 148.00 328.05 C 143.02 322.18 138.41 315.92 135.10 308.94 C 128.16 297.92 124.17 285.45 118.21 273.93 C 110.07 254.91 102.11 235.80 92.28 217.57 C 89.42 213.21 85.96 208.51 87.46 202.96 C 90.14 200.11 93.12 197.51 95.47 194.38 C 99.12 187.19 99.90 179.01 102.45 171.42 C 105.53 161.77 107.64 151.85 109.99 141.99 C 112.76 130.38 113.41 118.22 118.01 107.09 C 120.00 102.16 122.45 97.44 124.80 92.68 C 129.60 84.77 137.07 78.82 145.02 74.29 Z" />
<path fill="#000000" d=" M 144.52 110.51 C 158.70 96.47 178.95 87.80 199.04 90.28 C 216.81 92.99 232.89 103.04 244.28 116.77 C 263.06 138.98 271.82 168.24 272.94 196.97 C 275.96 201.40 279.51 205.53 284.20 208.26 C 279.30 210.32 275.67 214.26 272.28 218.23 C 270.03 233.54 266.74 248.91 260.05 262.97 C 252.48 279.26 241.11 294.17 225.99 304.12 C 212.45 312.97 195.49 317.13 179.52 313.79 C 164.35 310.72 150.86 301.77 140.58 290.41 C 123.55 271.30 114.15 246.31 111.09 221.12 C 107.22 217.71 103.39 213.72 97.99 213.06 C 95.88 213.28 97.35 210.92 98.22 210.50 C 102.57 207.38 105.37 202.75 108.52 198.53 C 110.89 195.51 110.16 191.47 110.68 187.92 C 113.42 159.52 123.96 130.87 144.52 110.51 Z" />
<path fill="#ffffff" d=" M 170.30 96.58 C 174.97 94.53 179.88 92.84 184.97 92.27 C 187.84 92.64 189.18 95.65 189.99 98.07 C 193.10 108.42 192.71 119.58 190.04 129.97 C 192.14 141.45 193.53 153.10 193.46 164.80 C 190.69 164.78 187.92 164.78 185.16 164.75 C 184.21 155.94 185.44 146.53 181.62 138.28 C 180.72 139.32 180.56 140.65 180.68 141.97 C 180.83 149.59 181.31 157.20 181.41 164.82 C 178.70 164.81 176.00 164.80 173.30 164.80 C 172.21 142.07 171.29 119.32 170.30 96.58 Z" />
<path fill="#ffffff" d=" M 196.85 92.09 C 202.97 92.69 208.83 94.67 214.41 97.17 C 214.38 103.13 213.87 109.07 213.58 115.02 C 211.00 114.19 208.41 113.41 205.81 112.67 C 205.72 115.15 205.63 117.63 205.56 120.11 C 207.36 120.55 209.16 120.98 210.97 121.43 C 210.73 127.51 210.39 133.58 210.31 139.67 C 208.59 139.36 206.87 139.05 205.16 138.75 C 204.94 141.20 204.82 143.66 204.76 146.11 C 207.26 146.43 209.77 146.74 212.29 146.97 C 212.07 152.92 211.54 158.87 211.41 164.83 C 206.32 164.80 201.24 164.81 196.16 164.77 C 196.47 140.55 196.32 116.32 196.85 92.09 Z" />
<path fill="#ffffff" d=" M 151.16 108.98 C 156.21 104.75 161.64 100.97 167.45 97.87 C 167.57 108.02 168.56 118.12 168.74 128.27 C 167.34 128.68 165.94 129.10 164.55 129.53 C 165.17 141.29 165.61 153.07 166.43 164.83 C 163.71 164.87 160.99 164.87 158.27 164.88 C 157.61 154.11 157.01 143.34 156.49 132.57 C 155.17 133.10 153.87 133.65 152.55 134.19 C 151.91 125.79 151.66 117.38 151.16 108.98 Z" />
<path fill="#ffffff" d=" M 217.48 98.82 C 222.79 101.79 227.70 105.38 232.37 109.26 C 232.21 114.17 232.04 119.08 231.76 123.98 C 229.53 122.61 227.27 121.31 224.94 120.11 C 224.79 122.21 224.64 124.31 224.48 126.41 C 226.11 127.24 227.76 128.05 229.41 128.87 C 229.35 133.89 228.85 138.89 228.61 143.90 C 226.96 143.46 225.31 143.01 223.66 142.58 C 223.54 144.71 223.45 146.84 223.40 148.97 C 225.72 149.46 228.05 149.94 230.36 150.46 C 230.21 155.28 230.05 160.09 229.72 164.91 C 224.61 164.89 219.50 164.88 214.39 164.83 C 215.50 142.83 216.61 120.83 217.48 98.82 Z" />
<path fill="#000000" d=" M 179.90 108.34 C 183.57 109.66 182.69 114.02 182.76 117.07 C 182.95 118.96 181.94 120.57 180.40 121.57 C 180.15 117.16 179.87 112.75 179.90 108.34 Z" />
<path fill="#ffffff" d=" M 234.05 110.95 C 238.40 114.59 242.25 118.76 246.01 123.00 C 246.68 123.86 247.73 124.70 247.51 125.96 C 247.57 131.59 247.50 137.22 247.59 142.86 C 246.76 142.40 245.09 141.49 244.25 141.04 C 243.44 149.06 243.85 157.18 243.50 165.25 C 240.80 165.21 238.11 165.17 235.42 165.13 C 235.96 155.76 236.18 146.38 236.62 137.01 C 235.33 136.41 234.05 135.82 232.76 135.23 C 233.29 127.14 233.45 119.04 234.05 110.95 Z" />
<path fill="#ffffff" d=" M 143.98 114.97 C 145.44 113.30 147.69 112.92 149.76 112.56 C 149.65 118.44 148.85 124.29 148.88 130.18 C 147.70 128.74 146.45 127.35 144.96 126.23 C 143.81 127.67 142.16 129.71 143.50 131.57 C 145.53 133.51 148.61 134.46 149.82 137.20 C 152.23 142.81 151.80 149.08 151.69 155.05 C 151.40 158.92 150.44 163.70 146.57 165.54 C 142.74 166.73 138.83 165.13 135.56 163.17 C 136.10 158.69 136.86 154.24 137.11 149.74 C 138.67 151.38 139.83 154.74 142.66 153.69 C 144.00 150.59 141.77 148.22 139.32 146.72 C 136.27 144.55 136.22 140.37 136.16 137.00 C 136.38 129.16 138.20 120.66 143.98 114.97 Z" />
<path fill="#ffffff" d=" M 126.12 141.97 C 127.92 137.22 130.92 133.10 133.66 128.87 C 133.84 140.85 133.67 152.84 133.76 164.82 C 129.25 164.85 124.74 164.85 120.23 164.82 C 119.29 156.67 123.23 149.29 126.12 141.97 Z" />
<path fill="#ffffff" d=" M 249.32 128.38 C 252.19 132.15 254.17 136.47 256.39 140.62 C 259.80 148.48 264.57 156.32 263.54 165.26 C 258.77 165.26 253.99 165.28 249.22 165.23 C 249.35 152.95 249.15 140.66 249.32 128.38 Z" />
<path fill="#000000" d=" M 297.68 192.79 C 301.37 189.40 307.48 194.93 304.45 198.91 C 302.69 202.25 297.31 201.72 296.18 198.15 C 295.04 196.32 296.22 194.03 297.68 192.79 Z" />
<path fill="#e70808" d=" M 127.83 201.86 C 129.99 198.99 133.29 196.70 136.98 196.53 C 145.96 195.90 154.92 197.90 163.42 200.66 C 168.31 203.15 173.36 205.86 177.09 209.95 C 180.20 213.46 178.07 218.22 177.72 222.29 C 184.12 217.26 190.53 211.92 198.37 209.30 C 210.87 203.68 225.75 204.10 237.99 210.19 C 243.08 212.83 246.75 217.45 249.75 222.22 C 252.87 227.55 254.85 234.36 252.28 240.30 C 251.46 242.55 248.86 242.92 247.05 244.04 C 242.02 246.92 237.38 250.43 232.25 253.14 C 225.49 256.09 218.09 256.91 210.96 258.55 C 199.79 260.95 188.30 260.68 176.95 260.51 C 164.90 259.48 153.91 253.91 143.19 248.74 C 139.94 246.88 136.09 245.27 134.47 241.63 C 130.68 234.01 124.96 226.90 124.65 218.03 C 123.44 212.44 125.00 206.71 127.83 201.86 Z" />
<path fill="#ffffff" d=" M 126.10 263.71 C 130.64 263.75 135.19 263.75 139.74 263.73 C 139.71 270.68 139.81 277.62 139.70 284.57 C 134.42 278.15 129.86 271.12 126.10 263.71 Z" />
<path fill="#ffffff" d=" M 146.29 264.20 C 150.33 261.48 155.26 264.29 157.50 267.97 C 156.46 270.77 155.35 273.55 154.53 276.43 C 153.43 276.39 152.32 276.36 151.22 276.31 C 150.35 275.63 149.78 274.14 148.46 274.31 C 147.90 276.63 147.56 279.13 148.97 281.22 C 149.05 280.11 149.21 277.89 149.29 276.78 C 151.61 277.79 153.93 278.88 156.50 279.09 C 156.07 285.62 155.66 292.14 155.47 298.68 C 149.36 295.85 144.27 290.61 142.69 283.94 C 140.77 277.47 140.10 268.61 146.29 264.20 Z" />
<path fill="#ffffff" d=" M 239.74 263.50 C 245.30 263.47 250.87 263.46 256.44 263.52 C 252.35 272.37 247.65 281.23 239.78 287.30 C 239.70 279.37 239.77 271.43 239.74 263.50 Z" />
<path fill="#ffffff" d=" M 157.08 299.80 C 157.52 287.76 158.50 275.75 158.83 263.71 C 162.58 263.80 166.35 263.57 170.09 263.88 C 172.94 264.92 173.61 268.37 174.13 270.99 C 175.25 276.34 174.06 281.76 172.62 286.90 C 174.07 293.76 174.61 300.79 174.54 307.80 C 171.80 306.89 169.08 305.91 166.43 304.78 C 166.45 299.74 166.80 294.58 165.19 289.72 C 164.58 294.41 164.73 299.15 164.48 303.87 C 161.98 302.57 159.53 301.20 157.08 299.80 Z" />
<path fill="#ffffff" d=" M 177.15 263.79 C 179.64 263.77 182.13 263.77 184.62 263.78 C 184.48 279.08 184.31 294.39 183.76 309.69 C 181.05 309.20 178.35 308.70 175.67 308.13 C 176.18 293.35 176.49 278.56 177.15 263.79 Z" />
<path fill="#ffffff" d=" M 186.68 263.79 C 188.52 263.78 190.37 263.77 192.21 263.77 C 193.03 267.80 193.98 271.81 195.08 275.78 C 194.95 271.79 194.82 267.80 194.75 263.80 C 197.29 263.78 199.83 263.77 202.38 263.77 C 202.76 278.67 203.39 293.56 203.77 308.45 C 201.67 308.91 199.58 309.38 197.49 309.86 C 196.43 306.24 195.70 302.55 194.69 298.92 C 194.46 302.54 194.67 306.15 194.71 309.77 C 191.94 309.85 189.17 309.89 186.40 309.86 C 186.57 294.51 186.61 279.15 186.68 263.79 Z" />
<path fill="#ffffff" d=" M 204.55 263.75 C 208.89 264.20 214.64 262.25 217.54 266.59 C 222.41 273.96 222.79 283.47 221.32 291.95 C 220.51 295.95 219.18 300.19 216.04 303.00 C 213.14 305.08 209.66 306.09 206.34 307.29 C 205.49 292.79 205.31 278.26 204.55 263.75 Z" />
<path fill="#ffffff" d=" M 221.76 263.72 C 227.25 263.58 232.74 263.51 238.24 263.51 C 235.63 270.20 233.78 277.16 232.14 284.15 C 234.02 282.98 235.88 281.80 237.75 280.63 C 237.77 283.01 237.78 285.38 237.77 287.76 C 233.13 291.90 228.36 295.93 223.09 299.24 C 224.42 290.28 226.13 281.35 228.37 272.57 C 226.37 272.95 224.37 273.31 222.36 273.65 C 222.28 270.33 222.04 267.02 221.76 263.72 Z" />
<path fill="#000000" d=" M 165.42 279.74 C 165.62 277.43 165.78 275.11 166.13 272.81 C 166.76 275.11 167.40 277.92 165.42 279.74 Z" />
<path fill="#000000" d=" M 213.21 279.65 C 214.77 281.63 214.52 284.17 214.49 286.54 C 214.20 286.82 213.60 287.38 213.30 287.66 C 213.17 284.99 213.03 282.32 213.21 279.65 Z" />
</svg>
