<?xml version="1.0" encoding="UTF-8" standalone="no"?>
<!-- Created with Inkscape (http://www.inkscape.org/) -->

<svg
   xmlns:dc="http://purl.org/dc/elements/1.1/"
   xmlns:cc="http://creativecommons.org/ns#"
   xmlns:rdf="http://www.w3.org/1999/02/22-rdf-syntax-ns#"
   xmlns:svg="http://www.w3.org/2000/svg"
   xmlns="http://www.w3.org/2000/svg"
   xmlns:sodipodi="http://sodipodi.sourceforge.net/DTD/sodipodi-0.dtd"
   xmlns:inkscape="http://www.inkscape.org/namespaces/inkscape"
   width="744.09448819"
   height="1052.3622047"
   id="svg3885"
   version="1.1"
   inkscape:version="0.48.1 r9760"
   inkscape:export-filename="/home/jason/hicap/foodtrucks/web/images/StreetgrindzMapLogo.png"
   inkscape:export-xdpi="6.6328878"
   inkscape:export-ydpi="6.6328878"
   sodipodi:docname="StreetGrindz-SVG-MapIcon-Inkscape.svg">
  <defs
     id="defs3887" />
  <sodipodi:namedview
     id="base"
     pagecolor="#ffffff"
     bordercolor="#666666"
     borderopacity="1.0"
     inkscape:pageopacity="0.0"
     inkscape:pageshadow="2"
     inkscape:zoom="0.7"
     inkscape:cx="51.064213"
     inkscape:cy="566.88439"
     inkscape:document-units="px"
     inkscape:current-layer="layer2"
     showgrid="false"
     inkscape:window-width="1280"
     inkscape:window-height="776"
     inkscape:window-x="0"
     inkscape:window-y="24"
     inkscape:window-maximized="1" />
  <metadata
     id="metadata3890">
    <rdf:RDF>
      <cc:Work
         rdf:about="">
        <dc:format>image/svg+xml</dc:format>
        <dc:type
           rdf:resource="http://purl.org/dc/dcmitype/StillImage" />
        <dc:title></dc:title>
      </cc:Work>
    </rdf:RDF>
  </metadata>
  <g
     inkscape:groupmode="layer"
     id="layer2"
     inkscape:label="Background">
    <rect
       style="fill:#000000;stroke:#000000;stroke-width:8.77472115;stroke-linecap:round;stroke-linejoin:miter;stroke-miterlimit:0;stroke-opacity:1;stroke-dasharray:none;stroke-dashoffset:0"
       id="rect3016"
       width="262.59344"
       height="354.12939"
       x="228.57143"
       y="313.60922"
       ry="23.401117" />
    <path
       sodipodi:type="star"
       style="fill:#000000;stroke:#000000;stroke-width:8.04399967;stroke-linecap:round;stroke-linejoin:miter;stroke-miterlimit:0;stroke-opacity:1;stroke-dasharray:none;stroke-dashoffset:0"
       id="path3032"
       sodipodi:sides="5"
       sodipodi:cx="328.57144"
       sodipodi:cy="148.07648"
       sodipodi:r1="149.14725"
       sodipodi:r2="74.237358"
       sodipodi:arg1="0.29145679"
       sodipodi:arg2="0.91977533"
       inkscape:flatsided="false"
       inkscape:rounded="0"
       inkscape:randomized="0"
       d="m 471.4286,190.93362 -97.8694,16.19611 -41.60204,90.05556 -45.64672,-88.07445 -98.50366,-11.73719 69.65817,-70.62912 -19.27658,-97.30954 88.69785,44.423259 86.59008,-48.403413 -14.83989,98.084204 z"
       inkscape:transform-center-x="-0.87921965"
       inkscape:transform-center-y="13.243585"
       transform="matrix(0.84035585,0,0,1,87.674541,469.14286)" />
  </g>
  <g
     inkscape:label="Layer 1"
     inkscape:groupmode="layer"
     id="layer1">
    <path
       inkscape:connector-curvature="0"
       d="m 302.52105,328.31042 c 5.775,-3.6875 13.0625,-3.9 18.7375,-7.8125 7.4,0.3625 15.0625,-0.55 22.225,1.8125 4.175,1.0875 8.55,1.5375 12.5,3.3875 3.275,1.4625 6.75,3.0625 10.425,2.1 9.4125,-2.425 18.4125,-7.9875 28.45,-6.2125 10.6125,3.125 21.7125,6.3125 30.0125,14.05 18.675,16.6 28.8375,40.6125 34.2375,64.575 3.8625,11.925 3.8375,24.6 6.75,36.7125 2.325,16.9125 9.4625,32.6125 15.1,48.5875 1.425,3.75 4.475,6.6625 5.5,10.5875 -12.5875,21.8125 -19.65,46.225 -27.2125,70.1125 -6.6375,17.05 -11.425,35.15 -22.0375,50.325 -3.5625,4.725 -5.85,10.35 -10.1,14.55 -2.7,4.725 -7.075,8.0875 -10.7,12.05 -8.475,8.2375 -19.5,14.7875 -31.55,15.3375 -6.7,1.325 -13.5875,0.275 -20.2875,1.5375 -7.8125,-2.0125 -16.1,0.4875 -23.9,-1.6375 -0.3375,0.0375 -1,0.1 -1.325,0.125 -11.875,-1.5125 -24.1,-4.6625 -33.1,-12.9875 -6.225,-7.3375 -11.9875,-15.1625 -16.125,-23.8875 -8.675,-13.775 -13.6625,-29.3625 -21.1125,-43.7625 -10.175,-23.775 -20.125,-47.6625 -32.4125,-70.45 -3.575,-5.45 -7.9,-11.325 -6.025,-18.2625 3.35,-3.5625 7.075,-6.8125 10.0125,-10.725 4.5625,-8.9875 5.5375,-19.2125 8.725,-28.7 3.85,-12.0625 6.4875,-24.4625 9.425,-36.7875 3.4625,-14.5125 4.275,-29.7125 10.025,-43.625 2.4875,-6.1625 5.55,-12.0625 8.4875,-18.0125 6,-9.8875 15.3375,-17.325 25.275,-22.9875 z"
       id="path6"
       style="fill:#e70808"
       inkscape:export-filename="/home/jason/Downloads/streetgrindz/path50.png"
       inkscape:export-xdpi="5.8318915"
       inkscape:export-ydpi="5.8318915" />
    <path
       inkscape:connector-curvature="0"
       d="m 301.89605,373.58542 c 17.725,-17.55 43.0375,-28.3875 68.15,-25.2875 22.2125,3.3875 42.3125,15.95 56.55,33.1125 23.475,27.7625 34.425,64.3375 35.825,100.25 3.775,5.5375 8.2125,10.7 14.075,14.1125 -6.125,2.575 -10.6625,7.5 -14.9,12.4625 -2.8125,19.1375 -6.925,38.35 -15.2875,55.925 -9.4625,20.3625 -23.675,39 -42.575,51.4375 -16.925,11.0625 -38.125,16.2625 -58.0875,12.0875 -18.9625,-3.8375 -35.825,-15.025 -48.675,-29.225 -21.2875,-23.8875 -33.0375,-55.125 -36.8625,-86.6125 -4.8375,-4.2625 -9.625,-9.25 -16.375,-10.075 -2.6375,0.275 -0.8,-2.675 0.2875,-3.2 5.4375,-3.9 8.9375,-9.6875 12.875,-14.9625 2.9625,-3.775 2.05,-8.825 2.7,-13.2625 3.425,-35.5 16.6,-71.3125 42.3,-96.7625 z"
       id="path8"
       style="fill:#000000"
       inkscape:export-filename="/home/jason/Downloads/streetgrindz/path50.png"
       inkscape:export-xdpi="5.8318915"
       inkscape:export-ydpi="5.8318915" />
    <path
       inkscape:connector-curvature="0"
       d="m 334.12105,356.17292 c 5.8375,-2.5625 11.975,-4.675 18.3375,-5.3875 3.5875,0.4625 5.2625,4.225 6.275,7.25 3.8875,12.9375 3.4,26.8875 0.0625,39.875 2.625,14.35 4.3625,28.9125 4.275,43.5375 -3.4625,-0.025 -6.925,-0.025 -10.375,-0.0625 -1.1875,-11.0125 0.35,-22.775 -4.425,-33.0875 -1.125,1.3 -1.325,2.9625 -1.175,4.6125 0.1875,9.525 0.7875,19.0375 0.9125,28.5625 -3.3875,-0.0125 -6.7625,-0.025 -10.1375,-0.025 -1.3625,-28.4125 -2.5125,-56.85 -3.75,-85.275 z"
       id="path10"
       style="fill:#ffffff"
       inkscape:export-filename="/home/jason/Downloads/streetgrindz/path50.png"
       inkscape:export-xdpi="5.8318915"
       inkscape:export-ydpi="5.8318915" />
    <path
       inkscape:connector-curvature="0"
       d="m 367.30855,350.56042 c 7.65,0.75 14.975,3.225 21.95,6.35 -0.0375,7.45 -0.675,14.875 -1.0375,22.3125 -3.225,-1.0375 -6.4625,-2.0125 -9.7125,-2.9375 -0.1125,3.1 -0.225,6.2 -0.3125,9.3 2.25,0.55 4.5,1.0875 6.7625,1.65 -0.3,7.6 -0.725,15.1875 -0.825,22.8 -2.15,-0.3875 -4.3,-0.775 -6.4375,-1.15 -0.275,3.0625 -0.425,6.1375 -0.5,9.2 3.125,0.4 6.2625,0.7875 9.4125,1.075 -0.275,7.4375 -0.9375,14.875 -1.1,22.325 -6.3625,-0.0375 -12.7125,-0.025 -19.0625,-0.075 0.3875,-30.275 0.2,-60.5625 0.8625,-90.85 z"
       id="path12"
       style="fill:#ffffff"
       inkscape:export-filename="/home/jason/Downloads/streetgrindz/path50.png"
       inkscape:export-xdpi="5.8318915"
       inkscape:export-ydpi="5.8318915" />
    <path
       inkscape:connector-curvature="0"
       d="m 310.19605,371.67292 c 6.3125,-5.2875 13.1,-10.0125 20.3625,-13.8875 0.15,12.6875 1.3875,25.3125 1.6125,38 -1.75,0.5125 -3.5,1.0375 -5.2375,1.575 0.775,14.7 1.325,29.425 2.35,44.125 -3.4,0.05 -6.8,0.05 -10.2,0.0625 -0.825,-13.4625 -1.575,-26.925 -2.225,-40.3875 -1.65,0.6625 -3.275,1.35 -4.925,2.025 -0.8,-10.5 -1.1125,-21.0125 -1.7375,-31.5125 z"
       id="path14"
       style="fill:#ffffff"
       inkscape:export-filename="/home/jason/Downloads/streetgrindz/path50.png"
       inkscape:export-xdpi="5.8318915"
       inkscape:export-ydpi="5.8318915" />
    <path
       inkscape:connector-curvature="0"
       d="m 393.09605,358.97292 c 6.6375,3.7125 12.775,8.2 18.6125,13.05 -0.2,6.1375 -0.4125,12.275 -0.7625,18.4 -2.7875,-1.7125 -5.6125,-3.3375 -8.525,-4.8375 -0.1875,2.625 -0.375,5.25 -0.575,7.875 2.0375,1.0375 4.1,2.05 6.1625,3.075 -0.075,6.275 -0.7,12.525 -1,18.7875 -2.0625,-0.55 -4.125,-1.1125 -6.1875,-1.65 -0.15,2.6625 -0.2625,5.325 -0.325,7.9875 2.9,0.6125 5.8125,1.2125 8.7,1.8625 -0.1875,6.025 -0.3875,12.0375 -0.8,18.0625 -6.3875,-0.025 -12.775,-0.0375 -19.1625,-0.1 1.3875,-27.5 2.775,-55 3.8625,-82.5125 z"
       id="path16"
       style="fill:#ffffff"
       inkscape:export-filename="/home/jason/Downloads/streetgrindz/path50.png"
       inkscape:export-xdpi="5.8318915"
       inkscape:export-ydpi="5.8318915" />
    <path
       inkscape:connector-curvature="0"
       d="m 346.12105,370.87292 c 4.5875,1.65 3.4875,7.1 3.575,10.9125 0.2375,2.3625 -1.025,4.375 -2.95,5.625 -0.3125,-5.5125 -0.6625,-11.025 -0.625,-16.5375 z"
       id="path18"
       style="fill:#000000"
       inkscape:export-filename="/home/jason/Downloads/streetgrindz/path50.png"
       inkscape:export-xdpi="5.8318915"
       inkscape:export-ydpi="5.8318915" />
    <path
       inkscape:connector-curvature="0"
       d="m 413.80855,374.13542 c 5.4375,4.55 10.25,9.7625 14.95,15.0625 0.8375,1.075 2.15,2.125 1.875,3.7 0.075,7.0375 -0.0125,14.075 0.1,21.125 -1.0375,-0.575 -3.125,-1.7125 -4.175,-2.275 -1.0125,10.025 -0.5,20.175 -0.9375,30.2625 -3.375,-0.05 -6.7375,-0.1 -10.1,-0.15 0.675,-11.7125 0.95,-23.4375 1.5,-35.15 -1.6125,-0.75 -3.2125,-1.4875 -4.825,-2.225 0.6625,-10.1125 0.8625,-20.2375 1.6125,-30.35 z"
       id="path20"
       style="fill:#ffffff"
       inkscape:export-filename="/home/jason/Downloads/streetgrindz/path50.png"
       inkscape:export-xdpi="5.8318915"
       inkscape:export-ydpi="5.8318915" />
    <path
       inkscape:connector-curvature="0"
       d="m 301.22105,379.16042 c 1.825,-2.0875 4.6375,-2.5625 7.225,-3.0125 -0.1375,7.35 -1.1375,14.6625 -1.1,22.025 -1.475,-1.8 -3.0375,-3.5375 -4.9,-4.9375 -1.4375,1.8 -3.5,4.35 -1.825,6.675 2.5375,2.425 6.3875,3.6125 7.9,7.0375 3.0125,7.0125 2.475,14.85 2.3375,22.3125 -0.3625,4.8375 -1.5625,10.8125 -6.4,13.1125 -4.7875,1.4875 -9.675,-0.5125 -13.7625,-2.9625 0.675,-5.6 1.625,-11.1625 1.9375,-16.7875 1.95,2.05 3.4,6.25 6.9375,4.9375 1.675,-3.875 -1.1125,-6.8375 -4.175,-8.7125 -3.8125,-2.7125 -3.875,-7.9375 -3.95,-12.15 0.275,-9.8 2.55,-20.425 9.775,-27.5375 z"
       id="path22"
       style="fill:#ffffff"
       inkscape:export-filename="/home/jason/Downloads/streetgrindz/path50.png"
       inkscape:export-xdpi="5.8318915"
       inkscape:export-ydpi="5.8318915" />
    <path
       inkscape:connector-curvature="0"
       d="m 278.89605,412.91042 c 2.25,-5.9375 6,-11.0875 9.425,-16.375 0.225,14.975 0.0125,29.9625 0.125,44.9375 -5.6375,0.0375 -11.275,0.0375 -16.9125,0 -1.175,-10.1875 3.75,-19.4125 7.3625,-28.5625 z"
       id="path24"
       style="fill:#ffffff"
       inkscape:export-filename="/home/jason/Downloads/streetgrindz/path50.png"
       inkscape:export-xdpi="5.8318915"
       inkscape:export-ydpi="5.8318915" />
    <path
       inkscape:connector-curvature="0"
       d="m 432.89605,395.92292 c 3.5875,4.7125 6.0625,10.1125 8.8375,15.3 4.2625,9.825 10.225,19.625 8.9375,30.8 -5.9625,0 -11.9375,0.025 -17.9,-0.0375 0.1625,-15.35 -0.0875,-30.7125 0.125,-46.0625 z"
       id="path26"
       style="fill:#ffffff"
       inkscape:export-filename="/home/jason/Downloads/streetgrindz/path50.png"
       inkscape:export-xdpi="5.8318915"
       inkscape:export-ydpi="5.8318915" />
    <path
       inkscape:connector-curvature="0"
       d="m 281.03355,487.77292 c 2.7,-3.5875 6.825,-6.45 11.4375,-6.6625 11.225,-0.7875 22.425,1.7125 33.05,5.1625 6.1125,3.1125 12.425,6.5 17.0875,11.6125 3.8875,4.3875 1.225,10.3375 0.7875,15.425 8,-6.2875 16.0125,-12.9625 25.8125,-16.2375 15.625,-7.025 34.225,-6.5 49.525,1.1125 6.3625,3.3 10.95,9.075 14.7,15.0375 3.9,6.6625 6.375,15.175 3.1625,22.6 -1.025,2.8125 -4.275,3.275 -6.5375,4.675 -6.2875,3.6 -12.0875,7.9875 -18.5,11.375 -8.45,3.6875 -17.7,4.7125 -26.6125,6.7625 -13.9625,3 -28.325,2.6625 -42.5125,2.45 -15.0625,-1.2875 -28.8,-8.25 -42.2,-14.7125 -4.0625,-2.325 -8.875,-4.3375 -10.9,-8.8875 -4.7375,-9.525 -11.8875,-18.4125 -12.275,-29.5 -1.5125,-6.9875 0.4375,-14.15 3.975,-20.2125 z"
       id="path30"
       style="fill:#e70808"
       inkscape:export-filename="/home/jason/Downloads/streetgrindz/path50.png"
       inkscape:export-xdpi="5.8318915"
       inkscape:export-ydpi="5.8318915" />
    <path
       inkscape:connector-curvature="0"
       d="m 278.87105,565.08542 c 5.675,0.05 11.3625,0.05 17.05,0.025 -0.0375,8.6875 0.0875,17.3625 -0.05,26.05 -6.6,-8.025 -12.3,-16.8125 -17,-26.075 z"
       id="path32"
       style="fill:#ffffff"
       inkscape:export-filename="/home/jason/Downloads/streetgrindz/path50.png"
       inkscape:export-xdpi="5.8318915"
       inkscape:export-ydpi="5.8318915" />
    <path
       inkscape:connector-curvature="0"
       d="m 304.10855,565.69792 c 5.05,-3.4 11.2125,0.1125 14.0125,4.7125 -1.3,3.5 -2.6875,6.975 -3.7125,10.575 -1.375,-0.05 -2.7625,-0.0875 -4.1375,-0.15 -1.0875,-0.85 -1.8,-2.7125 -3.45,-2.5 -0.7,2.9 -1.125,6.025 0.6375,8.6375 0.1,-1.3875 0.3,-4.1625 0.4,-5.55 2.9,1.2625 5.8,2.625 9.0125,2.8875 -0.5375,8.1625 -1.05,16.3125 -1.2875,24.4875 -7.6375,-3.5375 -14,-10.0875 -15.975,-18.425 -2.4,-8.0875 -3.2375,-19.1625 4.5,-24.675 z"
       id="path34"
       style="fill:#ffffff"
       inkscape:export-filename="/home/jason/Downloads/streetgrindz/path50.png"
       inkscape:export-xdpi="5.8318915"
       inkscape:export-ydpi="5.8318915" />
    <path
       inkscape:connector-curvature="0"
       d="m 420.92105,564.82292 c 6.95,-0.0375 13.9125,-0.05 20.875,0.025 -5.1125,11.0625 -10.9875,22.1375 -20.825,29.725 -0.1,-9.9125 -0.0125,-19.8375 -0.05,-29.75 z"
       id="path36"
       style="fill:#ffffff"
       inkscape:export-filename="/home/jason/Downloads/streetgrindz/path50.png"
       inkscape:export-xdpi="5.8318915"
       inkscape:export-ydpi="5.8318915" />
    <path
       inkscape:connector-curvature="0"
       d="m 317.59605,610.19792 c 0.55,-15.05 1.775,-30.0625 2.1875,-45.1125 4.6875,0.1125 9.4,-0.175 14.075,0.2125 3.5625,1.3 4.4,5.6125 5.05,8.8875 1.4,6.6875 -0.0875,13.4625 -1.8875,19.8875 1.8125,8.575 2.4875,17.3625 2.4,26.125 -3.425,-1.1375 -6.825,-2.3625 -10.1375,-3.775 0.025,-6.3 0.4625,-12.75 -1.55,-18.825 -0.7625,5.8625 -0.575,11.7875 -0.8875,17.6875 -3.125,-1.625 -6.1875,-3.3375 -9.25,-5.0875 z"
       id="path38"
       style="fill:#ffffff"
       inkscape:export-filename="/home/jason/Downloads/streetgrindz/path50.png"
       inkscape:export-xdpi="5.8318915"
       inkscape:export-ydpi="5.8318915" />
    <path
       inkscape:connector-curvature="0"
       d="m 342.68355,565.18542 c 3.1125,-0.025 6.225,-0.025 9.3375,-0.0125 -0.175,19.125 -0.3875,38.2625 -1.075,57.3875 -3.3875,-0.6125 -6.7625,-1.2375 -10.1125,-1.95 0.6375,-18.475 1.025,-36.9625 1.85,-55.425 z"
       id="path40"
       style="fill:#ffffff"
       inkscape:export-filename="/home/jason/Downloads/streetgrindz/path50.png"
       inkscape:export-xdpi="5.8318915"
       inkscape:export-ydpi="5.8318915" />
    <path
       inkscape:connector-curvature="0"
       d="m 354.59605,565.18542 c 2.3,-0.0125 4.6125,-0.025 6.9125,-0.025 1.025,5.0375 2.2125,10.05 3.5875,15.0125 -0.1625,-4.9875 -0.325,-9.975 -0.4125,-14.975 3.175,-0.025 6.35,-0.0375 9.5375,-0.0375 0.475,18.625 1.2625,37.2375 1.7375,55.85 -2.625,0.575 -5.2375,1.1625 -7.85,1.7625 -1.325,-4.525 -2.2375,-9.1375 -3.5,-13.675 -0.2875,4.525 -0.025,9.0375 0.025,13.5625 -3.4625,0.1 -6.925,0.15 -10.3875,0.1125 0.2125,-19.1875 0.2625,-38.3875 0.35,-57.5875 z"
       id="path42"
       style="fill:#ffffff"
       inkscape:export-filename="/home/jason/Downloads/streetgrindz/path50.png"
       inkscape:export-xdpi="5.8318915"
       inkscape:export-ydpi="5.8318915" />
    <path
       inkscape:connector-curvature="0"
       d="m 376.93355,565.13542 c 5.425,0.5625 12.6125,-1.875 16.2375,3.55 6.0875,9.2125 6.5625,21.1 4.725,31.7 -1.0125,5 -2.675,10.3 -6.6,13.8125 -3.625,2.6 -7.975,3.8625 -12.125,5.3625 -1.0625,-18.125 -1.2875,-36.2875 -2.2375,-54.425 z"
       id="path44"
       style="fill:#ffffff"
       inkscape:export-filename="/home/jason/Downloads/streetgrindz/path50.png"
       inkscape:export-xdpi="5.8318915"
       inkscape:export-ydpi="5.8318915" />
    <path
       inkscape:connector-curvature="0"
       d="m 398.44605,565.09792 c 6.8625,-0.175 13.725,-0.2625 20.6,-0.2625 -3.2625,8.3625 -5.575,17.0625 -7.625,25.8 2.35,-1.4625 4.675,-2.9375 7.0125,-4.4 0.025,2.975 0.0375,5.9375 0.025,8.9125 -5.8,5.175 -11.7625,10.2125 -18.35,14.35 1.6625,-11.2 3.8,-22.3625 6.6,-33.3375 -2.5,0.475 -5,0.925 -7.5125,1.35 -0.1,-4.15 -0.4,-8.2875 -0.75,-12.4125 z"
       id="path46"
       style="fill:#ffffff"
       inkscape:export-filename="/home/jason/Downloads/streetgrindz/path50.png"
       inkscape:export-xdpi="5.8318915"
       inkscape:export-ydpi="5.8318915" />
    <path
       inkscape:connector-curvature="0"
       d="m 328.02105,585.12292 c 0.25,-2.8875 0.45,-5.7875 0.8875,-8.6625 0.7875,2.875 1.5875,6.3875 -0.8875,8.6625 z"
       id="path48"
       style="fill:#000000"
       inkscape:export-filename="/home/jason/Downloads/streetgrindz/path50.png"
       inkscape:export-xdpi="5.8318915"
       inkscape:export-ydpi="5.8318915" />
    <path
       inkscape:connector-curvature="0"
       d="m 387.75855,585.01042 c 1.95,2.475 1.6375,5.65 1.6,8.6125 -0.3625,0.35 -1.1125,1.05 -1.4875,1.4 -0.1625,-3.3375 -0.3375,-6.675 -0.1125,-10.0125 z"
       id="path50"
       style="fill:#000000"
       inkscape:export-xdpi="5.8318915"
       inkscape:export-ydpi="5.8318915" />
  </g>
</svg>
